<?xml version="1.0" encoding="UTF-8" standalone="no"?>
<svg width="785px" height="491px" viewBox="0 0 785 491" version="1.1" xmlns="http://www.w3.org/2000/svg" xmlns:xlink="http://www.w3.org/1999/xlink">
    <!-- Generator: Sketch 42 (36781) - http://www.bohemiancoding.com/sketch -->
    <title>Page 1</title>
    <desc>Created with Sketch.</desc>
    <defs></defs>
    <g id="Page-1" stroke="none" stroke-width="1" fill="none" fill-rule="evenodd">
        <g fill="#221F20">
            <path d="M495.5,226.0053 C495.034,226.3333 495.034,226.6663 495.5,226.9943 C495.966,226.6663 495.966,226.3333 495.5,226.0053 M486.499,252.9963 C483.277,253.4923 482.597,253.9163 480.214,256.9903 C481.898,256.8333 483.456,257.3993 485.017,256.5303 C486.23,255.8533 487.65,258.2583 488.977,256.3393 C487.709,255.5643 486.942,254.3893 486.499,252.9963 M483.782,217.1523 C486.204,214.5453 486.502,214.4953 489.763,216.0913 L489.763,208.9463 C491.895,205.9843 495.294,205.2813 496.966,202.3193 C499.079,204.9743 497.181,206.6013 497.033,208.3933 C496.883,210.2123 497.113,212.0603 496.969,213.8793 C496.819,215.7593 497.68,217.8383 496.135,219.6623 C496.823,220.3043 497.664,221.0903 498.534,221.9033 C498.813,221.6483 499.162,221.3303 499.77,220.7743 C499.527,223.7573 502.409,223.6573 503.842,225.3763 C504.241,226.0263 502.987,226.0293 503.027,226.5953 C501.994,227.6623 504.724,227.9123 503.506,228.9953 C501.589,229.5523 501.4,226.3413 499.188,227.1893 C498.567,229.3463 499.49,231.8333 498.067,234.0693 C496.864,235.9593 494.481,236.9413 494.388,239.7693 C495.801,240.5163 495.88,242.6313 497.061,243.6943 C496.906,245.0503 495.953,245.3153 495.525,245.9873 C494.572,245.9233 493.579,246.2743 492.789,245.3273 C492.175,244.5933 491.241,245.1433 490.35,244.9973 C490.039,247.1953 487.844,248.6193 488.022,251.3633 C490.409,254.5163 493.823,256.8243 497.786,258.9583 L502.178,258.9583 C505.769,261.8163 510.434,262.3193 513.554,265.0203 C512.805,265.7573 512.047,266.5033 510.624,267.9043 L506.418,267.9043 C506.435,269.6133 504.378,270.1793 504.931,272.0113 C503.684,270.7423 502.368,270.9213 501.148,271.0213 C497.559,271.3123 494.743,270.2043 491.955,267.7203 C490.154,266.1163 488.353,264.8933 487.843,262.0553 C486.074,262.0513 484.138,262.0353 482.507,260.9873 C480.909,259.9593 479.088,259.1933 478.065,257.4203 C481.453,252.4683 484.91,247.4853 486.568,241.1003 C486.249,240.9473 485.367,240.5243 485.018,240.3563 L485.018,232.5513 C485.334,231.8173 486.126,232.1253 486.698,231.8253 C487.131,230.8713 485.028,230.1233 486.427,229.0743 C488.364,230.1503 488.327,232.5163 489.631,234.0063 C489.96,233.9733 490.279,233.9403 490.863,233.8813 C489.602,230.6063 488.368,227.4003 487.024,223.9073 C487.137,222.9963 488.651,222.1333 487.892,220.4613 C486.351,219.9713 485.088,218.8013 483.782,217.1523" id="Fill-1"></path>
            <path d="M243.1689,61.0998 C242.2579,64.1008 241.0789,66.4538 240.6419,70.1568 C238.9509,67.2538 237.2129,65.7358 235.3699,63.8658 C232.0859,65.8648 228.0949,67.2978 224.4809,66.6818 C220.6869,66.0358 216.6129,66.2768 212.7489,64.3568 C217.4159,61.7888 221.7639,59.0098 225.9539,55.9938 C228.3119,54.2958 230.9959,55.3148 233.5629,54.9238 C235.4169,52.5948 231.8909,51.6278 232.1269,50.0458 C232.4589,47.8248 229.6089,47.4098 230.0879,45.1108 C231.9819,44.7518 233.0799,46.3988 234.5759,46.8428 C234.8919,45.0878 236.4129,44.2458 237.8989,42.4958 L237.8989,50.4458 C238.8869,51.1688 239.3259,51.9888 239.0899,53.0068 C239.9449,52.9498 240.4209,53.1488 240.8379,52.6798 C242.6629,50.6268 244.9379,49.7198 247.7029,49.9888 C249.7989,50.1928 251.5459,48.5648 253.7829,48.9288 C255.6339,49.2298 257.6189,49.2558 259.3729,48.0468 C259.7709,47.7728 260.6969,47.7618 261.0699,49.0148 C259.3869,52.4178 255.3929,53.7688 252.7169,56.5018 C250.3239,58.9458 246.8439,60.4608 243.1689,61.0998" id="Fill-3"></path>
            <path d="M412.631,480.1721 C410.31,477.3251 406.842,478.9171 404.478,477.7171 C401.6,476.2551 398.613,478.0451 396.006,476.5531 L396.006,475.4911 C400.496,473.0921 405.781,472.3951 409.795,469.0001 C411.556,468.6811 412.781,469.9091 414.089,470.6631 C416.281,471.9261 418.344,472.5881 420.93,470.3221 C421.578,469.2141 421.815,467.0031 423.705,465.9831 C426.9,466.3261 425.056,470.3081 428.305,471.0261 C431.005,470.6911 433.541,468.4511 437.742,466.7141 C439.269,466.2311 441.884,467.6771 444.458,468.2101 C446.934,468.7231 449.467,468.7791 451.88,469.0821 C451.943,469.7241 451.974,470.0441 452.045,470.7721 C444.016,473.0941 435.806,475.2181 428.242,479.4641 C427.884,481.3321 425.62,482.3161 424.944,484.3821 L424.944,487.6361 C424.157,488.9671 423.841,489.5001 423.541,490.0061 C422.393,489.1471 423.601,487.8711 422.664,487.1511 C421.447,487.7111 420.62,488.5551 420.975,490.3021 C420.421,489.8691 420.201,489.7781 420.201,489.6861 C420.183,486.5711 420.186,483.4561 420.186,480.1721 L412.631,480.1721 Z" id="Fill-5"></path>
            <path d="M538.4675,214.8679 L542.0555,214.8679 C541.5685,211.5819 543.0755,209.2749 545.2705,207.1809 C547.2415,205.2989 549.4445,203.5819 550.6655,201.0169 C550.7135,200.9149 551.2715,201.0569 551.9995,201.1219 C551.9995,206.1899 552.0185,211.2989 551.9895,216.4089 C551.9805,218.0819 550.8085,219.2549 549.8945,220.9119 C551.8755,223.2789 550.9755,227.2149 554.2705,229.6859 C551.4745,230.2079 549.0485,230.4069 546.5135,228.6549 C544.3345,235.4179 539.0585,238.8559 532.9795,242.5509 C533.3915,237.3569 535.8745,233.1039 534.9525,228.7919 C536.5345,226.4339 537.0145,223.7959 539.0625,222.4589 C538.0085,217.8379 533.7395,217.0389 531.0365,214.5899 C531.6735,213.4149 532.8625,214.3829 533.8485,213.7089 C533.3005,212.5629 532.7135,211.3349 531.8895,209.6109 C535.1805,210.7689 536.3535,213.3799 538.4675,214.8679" id="Fill-7"></path>
            <path d="M752.6575,64.1694 C753.0495,64.5384 753.2845,64.7594 753.5205,64.9794 C753.9695,63.9034 755.2535,64.2564 755.9645,63.5354 L755.9645,60.8194 C754.9295,59.9714 753.4425,58.7544 751.9745,57.5524 C753.6185,55.6654 754.2115,58.9724 755.7015,57.8314 C755.8565,57.3914 756.0605,56.8134 756.4265,55.7784 C757.8495,57.8274 759.1145,59.6484 760.5545,61.7224 C761.3895,61.8164 762.1695,63.1784 764.1215,62.9284 C766.7935,60.6544 770.5055,60.9114 774.2015,60.9874 C777.1335,61.0484 780.0685,61.0004 784.2265,61.0004 C781.1125,63.4484 778.9955,65.1024 776.8695,66.7914 C774.5495,68.6364 771.3805,68.1784 769.1105,70.1534 L769.1105,75.7244 C767.7375,75.9964 767.5755,74.6564 766.4365,74.1524 L761.2535,74.1524 C760.6765,73.4014 760.0755,72.6184 759.5445,71.9254 C753.0675,74.6164 747.2265,71.5234 740.3015,70.8444 C744.6925,68.0284 748.4615,65.8354 752.6575,64.1694" id="Fill-9"></path>
            <path d="M268,330.926 L270.421,330.926 C272.22,329.919 273.077,327.383 275.462,326.918 C276.453,328.151 273.98,328.4 275.032,329.534 C275.375,330.207 276.201,329.821 276.838,330.303 C275.351,333.583 270.613,334.082 270.047,338.178 C270.806,339.628 271.407,341.304 272.916,342.366 C273.312,345.726 272.447,349.15 273.913,352.457 C274.454,353.68 274,355.344 274,357.556 C269.736,352.987 265.006,349.791 263.747,343.692 C262.03,345.775 260.11,344.709 257.704,345.156 C259.611,341.957 258.144,338.319 260.767,335.733 C259.63,332.246 257.878,328.956 259.87,325.017 C260.661,323.454 260,321.157 260,318.576 C264.262,320.67 264.637,325.474 268,327.363 L268,330.926 Z" id="Fill-11"></path>
            <path d="M340.2298,139.1086 C339.9268,135.9136 337.1988,133.7176 336.8378,130.5036 C333.6758,129.2396 330.4348,127.8176 327.1058,126.6476 C323.7738,125.4766 320.3528,124.5586 317.0208,123.5446 L317.0208,122.1046 C320.9638,122.1326 324.8048,121.4296 328.5908,120.2356 C331.5748,121.2456 333.5828,125.1066 337.9168,123.7196 C337.9618,123.0126 338.0118,122.2256 338.0648,121.4046 C339.0668,120.5416 340.2768,121.2046 341.4968,120.9666 C341.9718,122.7236 343.2838,123.8696 344.6758,125.0916 C346.3568,124.4016 348.0158,123.4976 349.7888,123.0806 C350.7658,122.8506 351.9528,122.6696 353.0668,123.4976 C355.3078,125.1636 358.3418,125.2036 360.6128,126.9566 C361.1638,127.3826 362.2348,126.6666 363.0088,127.4926 C362.9188,129.5496 361.4788,130.5766 359.8148,129.8916 C357.7438,129.0386 356.0428,130.5436 354.1038,130.0466 C352.1238,129.5386 350.4188,130.6236 348.8338,131.6856 C347.2558,132.7436 346.1588,131.4616 344.9418,131.0016 C343.1028,130.9556 345.0308,133.7086 342.7848,133.1436 C343.2678,135.2826 344.9028,136.9246 343.6228,138.8706 C341.5928,139.7706 342.3768,137.5146 341.5568,137.0556 C340.5808,137.3656 341.3748,138.6366 340.2298,139.1086" id="Fill-13"></path>
            <path d="M564.9137,424.6782 C566.1397,421.0882 567.5297,417.5422 568.5337,413.8912 C569.1747,411.5572 569.7527,409.8632 572.7037,409.6662 C574.3507,409.5562 575.7637,408.0142 577.0687,406.2822 L577.0687,401.1712 C578.6597,400.9822 580.0777,400.6862 581.1647,401.5532 C582.2147,400.5042 583.3307,399.3872 584.7407,397.9772 C584.5497,396.8322 586.3657,395.4912 585.9787,393.5382 C588.6147,390.3642 593.2287,389.6742 595.7457,386.1302 C595.3477,390.0852 592.3187,392.6102 590.5727,395.7712 C588.7627,399.0472 588.0987,402.7852 585.9747,405.8602 C586.0647,407.2272 587.4407,407.5872 587.9967,408.5662 C587.1027,410.9662 587.0787,411.8742 587.8417,414.6642 C587.1417,415.3462 586.2597,414.8142 585.5107,415.0082 C584.1937,415.6022 586.0747,417.8802 583.9297,418.0182 C583.6227,417.8592 583.1167,417.7282 583.1087,417.5722 C582.9907,415.2392 582.2057,413.2872 579.9917,411.7032 C578.5307,412.9162 577.1617,414.1222 575.1407,414.4512 C571.9427,414.9702 570.7607,418.1182 569.3347,420.4152 C568.2027,422.2382 566.7297,423.4242 564.9137,424.6782" id="Fill-15"></path>
            <path d="M422.8946,6.965 C426.1466,5.856 427.9486,3.943 428.7826,1.712 C429.9856,0.507 430.9116,1.399 431.9656,0.741 C431.8996,1.765 432.0456,2.366 431.8106,2.633 C430.7536,3.832 429.1926,4.785 430.4106,7.031 C433.0186,6.582 435.4866,7.648 437.9886,8.395 C438.1316,9.919 437.2286,10.733 436.1096,10.958 C432.2966,11.725 428.9436,13.359 426.3726,16.241 C425.5226,17.193 423.8836,16.433 423.7536,17.924 C421.6886,18.199 419.6306,17.438 418.0996,19.02 C415.9886,18.52 416.0416,16.786 415.7656,15.085 L411.6136,15.085 C410.0396,13.738 409.3916,12.177 408.8126,10.353 C413.8926,9.358 418.2616,6.278 422.8946,6.965" id="Fill-17"></path>
            <path d="M545.672,96.0757 C549.713,95.6907 553.032,97.9927 555.684,97.1567 C558.268,97.6877 559.532,98.9007 560.448,99.9507 C561.913,100.1307 562.128,99.0487 562.897,98.7317 C561.896,97.3027 561.692,95.8337 562.227,94.2687 C564.069,93.2297 563.842,94.9687 564.293,95.7967 C565.444,96.4737 566.932,95.3807 567.991,96.4597 C568.344,98.5617 564.518,99.0917 566.41,101.8497 C572.328,101.9237 576.492,105.9277 581.604,109.8677 L569.638,109.8677 C568.517,109.2867 567.149,108.5777 565.486,107.7157 C565.366,109.7517 563.458,109.8307 562.531,110.9707 C561.266,109.5737 559.043,108.7497 560.102,106.2407 C554.814,103.4397 549.847,100.7697 545.672,96.0757" id="Fill-19"></path>
            <path d="M9.3344,213.0026 C11.2264,215.4116 11.5144,218.8076 13.8274,220.3806 C14.3344,221.9066 12.7734,222.0086 13.0994,223.4256 C14.7814,223.8126 15.7144,225.8796 17.8964,226.3136 L17.8964,231.8826 C14.0334,231.1906 10.2314,230.5106 6.2564,229.7986 C5.6134,229.2656 6.1744,228.3666 5.9574,227.4626 C4.2724,227.0066 3.1094,225.7166 2.4754,224.9756 C1.6204,222.3786 0.9954,220.4766 0.2854,218.3216 C2.9284,216.2216 -0.8176,213.6536 0.2574,210.7836 C2.2674,212.7726 4.0614,214.5476 5.7524,216.2216 C7.5064,215.3386 7.1434,212.8506 9.3344,213.0026" id="Fill-21"></path>
            <path d="M187.4581,62.9245 C188.9991,63.1265 189.1521,61.6655 190.5331,62.1265 C190.7411,62.3105 191.2181,62.7305 191.8171,63.2595 C192.5031,65.2355 190.9551,67.8155 193.5841,69.4835 C194.6801,70.1595 195.9131,71.7045 197.7031,70.9635 C200.7661,75.3855 201.8951,80.2165 203.8111,84.7375 C203.0001,85.1315 202.5991,85.1045 201.9391,84.1735 C200.0361,81.4885 199.2401,78.0505 196.4271,76.0085 C193.9831,76.0515 192.1951,74.7975 190.6101,73.1085 C188.4861,74.5015 190.5111,77.4985 188.3901,78.8945 C187.6451,78.2025 188.1741,77.3155 188.0001,76.5425 C187.3361,75.4545 186.1321,76.3805 185.1471,75.7035 C185.1301,73.9085 184.3591,72.2305 183.1741,70.6375 C183.8271,69.3575 184.5041,68.0305 185.0711,66.9165 C183.5231,60.6605 180.2611,55.5735 176.3441,50.1195 C182.8411,53.4785 183.0781,53.8365 185.0451,59.1085 C185.5771,60.5315 186.0831,62.1355 187.4581,62.9245" id="Fill-23"></path>
        </g>
    </g>
</svg>