<?xml version="1.0" encoding="UTF-8" standalone="no"?>
<svg width="102px" height="51px" viewBox="0 0 102 51" version="1.1" xmlns="http://www.w3.org/2000/svg" xmlns:xlink="http://www.w3.org/1999/xlink">
    <!-- Generator: Sketch 42 (36781) - http://www.bohemiancoding.com/sketch -->
    <title>Logo</title>
    <desc>Created with Sketch.</desc>
    <defs></defs>
    <g id="Page-1" stroke="none" stroke-width="1" fill="none" fill-rule="evenodd">
        <path d="M55.4328139,20.9218381 L46.1940116,20.9218381 L46.1940116,24.4961456 L55.4328139,24.4961456 L55.4328139,20.9218381 Z M55.972306,34.5446705 C55.6745064,34.5446705 55.4328139,34.3029664 55.4328139,34.0051524 L55.4328139,27.7332543 L46.1940116,27.7332543 L46.1940116,34.0051524 C46.1940116,34.3029664 45.9523191,34.5446705 45.6545195,34.5446705 L43.496551,34.5446705 C43.1987514,34.5446705 42.9570589,34.3029664 42.9570589,34.0051524 L42.9570589,18.2242475 C42.9570589,17.9264335 43.1987514,17.6847294 43.496551,17.6847294 L58.1302744,17.6847294 C58.4280741,17.6847294 58.6697665,17.9264335 58.6697665,18.2242475 L58.6697665,34.0051524 C58.6697665,34.3029664 58.4280741,34.5446705 58.1302744,34.5446705 L55.972306,34.5446705 Z M101.087333,17.6847294 L62.7833938,17.6847294 C62.4855942,17.6847294 62.2439017,17.9264335 62.2439017,18.2242475 L62.2439017,20.38232 C62.2439017,20.680134 62.4855942,20.9218381 62.7833938,20.9218381 L101.087333,20.9218381 C101.385133,20.9218381 101.626825,20.680134 101.626825,20.38232 L101.626825,18.2242475 C101.626825,17.9264335 101.385133,17.6847294 101.087333,17.6847294 L101.087333,17.6847294 Z M80.9912524,31.3075618 L62.7833938,31.3075618 C62.4855942,31.3075618 62.2439017,31.5492659 62.2439017,31.8470799 L62.2439017,34.0051524 C62.2439017,34.3029664 62.4855942,34.5446705 62.7833938,34.5446705 L80.9912524,34.5446705 C81.2890521,34.5446705 81.5307445,34.3029664 81.5307445,34.0051524 L81.5307445,31.8470799 C81.5307445,31.5492659 81.2890521,31.3075618 80.9912524,31.3075618 L80.9912524,31.3075618 Z M58.9427495,38.370933 C58.8440225,38.2139332 58.671385,38.118978 58.4863392,38.118978 L55.7397849,38.118978 C55.3999049,38.118978 55.1932794,38.4934036 55.3745487,38.7809668 L60.1954502,46.428636 C60.3546004,46.6811305 60.687467,46.756663 60.9394098,46.5975052 L62.7650511,45.4467131 C63.0169939,45.2880947 63.0925228,44.9546725 62.9339121,44.7027176 L58.9427495,38.370933 Z M91.0392929,24.4961456 L62.7833938,24.4961456 C62.4855942,24.4961456 62.2439017,24.7378497 62.2439017,25.0356637 L62.2439017,27.1937362 C62.2439017,27.4915502 62.4855942,27.7332543 62.7833938,27.7332543 L91.0392929,27.7332543 C91.3370925,27.7332543 91.578785,27.4915502 91.578785,27.1937362 L91.578785,25.0356637 C91.578785,24.7378497 91.3370925,24.4961456 91.0392929,24.4961456 L91.0392929,24.4961456 Z M39.3829237,20.38232 L39.3829237,18.2242475 C39.3829237,17.9264335 39.1412313,17.6847294 38.8434316,17.6847294 L0.539492106,17.6847294 C0.241692463,17.6847294 5.68434189e-14,17.9264335 5.68434189e-14,18.2242475 L5.68434189e-14,20.38232 C5.68434189e-14,20.680134 0.241692463,20.9218381 0.539492106,20.9218381 L38.8434316,20.9218381 C39.1412313,20.9218381 39.3829237,20.680134 39.3829237,20.38232 L39.3829237,20.38232 Z M42.9646118,14.2566313 L45.5708982,14.2566313 C45.7705103,14.2566313 45.9533981,14.1465696 46.0472697,13.9706867 L50.8136825,5.01846263 L55.5795557,13.9706867 C55.6734274,14.1465696 55.8563152,14.2566313 56.0559273,14.2566313 L58.6805564,14.2566313 C59.0058701,14.2566313 59.2146536,13.9097212 59.0614378,13.622158 L52.3453006,1.00768496 C52.1575573,0.654840112 51.8683895,0.366197921 51.5161012,0.178445617 L51.5031534,0.171971399 C51.0720992,-0.0573237997 50.5547263,-0.0573237997 50.1236721,0.171971399 L50.1107243,0.178445617 C49.7578964,0.366737439 49.4692682,0.65537963 49.2809854,1.00822448 L42.5837304,13.6226975 C42.4310541,13.9097212 42.6392981,14.2566313 42.9646118,14.2566313 L42.9646118,14.2566313 Z M39.3829237,34.0051524 L39.3829237,31.8470799 C39.3829237,31.5492659 39.1412313,31.3075618 38.8434316,31.3075618 L20.6355731,31.3075618 C20.3377734,31.3075618 20.0960809,31.5492659 20.0960809,31.8470799 L20.0960809,34.0051524 C20.0960809,34.3029664 20.3377734,34.5446705 20.6355731,34.5446705 L38.8434316,34.5446705 C39.1412313,34.5446705 39.3829237,34.3029664 39.3829237,34.0051524 L39.3829237,34.0051524 Z M45.8519736,38.118978 L43.1054193,38.118978 C42.9203735,38.118978 42.747736,38.2139332 42.6490089,38.370933 L38.6578463,44.7027176 C38.4992357,44.9546725 38.5747646,45.2880947 38.8267074,45.4467131 L40.6523487,46.5975052 C40.9042915,46.756663 41.2371581,46.6811305 41.3963083,46.428636 L46.2172097,38.7809668 C46.3984791,38.4934036 46.1918536,38.118978 45.8519736,38.118978 L45.8519736,38.118978 Z M39.3829237,27.1937362 L39.3829237,25.0356637 C39.3829237,24.7378497 39.1412313,24.4961456 38.8434316,24.4961456 L10.5875326,24.4961456 C10.2897329,24.4961456 10.0480405,24.7378497 10.0480405,25.0356637 L10.0480405,27.1937362 C10.0480405,27.4915502 10.2897329,27.7332543 10.5875326,27.7332543 L38.8434316,27.7332543 C39.1412313,27.7332543 39.3829237,27.4915502 39.3829237,27.1937362 L39.3829237,27.1937362 Z M52.4321588,40.2770505 L52.4321588,50.4604549 C52.4321588,50.7582689 52.1904663,50.999973 51.8926667,50.999973 L49.7346983,50.999973 C49.4363591,50.999973 49.1952062,50.7582689 49.1952062,50.4604549 L49.1952062,40.2770505 C49.1952062,39.9792365 49.4363591,39.7375324 49.7346983,39.7375324 L51.8926667,39.7375324 C52.1904663,39.7375324 52.4321588,39.9792365 52.4321588,40.2770505 L52.4321588,40.2770505 Z" id="Logo" fill="#1A1C1F"></path>
    </g>
</svg>